<?xml version="1.0" standalone="no"?>
<!DOCTYPE svg PUBLIC "-//W3C//DTD SVG 20010904//EN"
 "http://www.w3.org/TR/2001/REC-SVG-20010904/DTD/svg10.dtd">
<svg version="1.0" xmlns="http://www.w3.org/2000/svg"
 width="256.000000pt" height="256.000000pt" viewBox="0 0 256.000000 256.000000"
 preserveAspectRatio="xMidYMid meet">

<g transform="translate(0.000000,256.000000) scale(0.100000,-0.100000)"
fill="#000000" stroke="none">
<path d="M1130 2273 l0 -258 -298 -171 -297 -171 -3 -301 c-1 -166 0 -302 3
-302 3 0 61 32 130 71 l125 71 0 157 0 156 295 169 295 169 0 113 c0 63 2 114
4 114 3 0 152 -85 333 -189 l328 -188 3 -344 2 -345 125 -72 c68 -39 126 -72
129 -72 3 0 6 220 6 489 l0 488 -585 337 c-323 185 -588 336 -590 336 -3 0 -5
-116 -5 -257z"/>
<path d="M627 2103 l-427 -246 0 -679 c0 -374 3 -677 8 -675 4 3 107 61 229
131 l221 127 296 -171 c163 -93 298 -170 301 -170 5 0 229 128 434 247 l93 55
-78 45 c-44 24 -102 57 -130 73 l-50 29 -130 -74 c-71 -41 -134 -75 -139 -75
-6 0 -142 76 -304 169 l-294 169 -93 -54 c-51 -30 -95 -54 -99 -54 -3 0 -4
172 -3 381 l3 381 298 172 297 171 0 147 c0 82 -1 148 -2 148 -2 0 -195 -111
-431 -247z"/>
<path d="M1452 1823 l3 -147 132 -76 133 -75 2 -345 3 -345 98 -57 99 -56 -69
-40 c-245 -142 -595 -342 -598 -342 -3 0 -138 77 -300 170 l-296 171 -130 -74
-129 -74 421 -242 c232 -133 425 -243 429 -244 10 -2 1179 665 1180 673 0 3
-101 64 -225 134 l-225 129 -2 345 -3 345 -258 148 c-142 82 -260 149 -263
149 -2 0 -3 -66 -2 -147z"/>
</g>
</svg>
